<?xml version="1.0" encoding="UTF-8" standalone="no"?>
<!DOCTYPE svg PUBLIC "-//W3C//DTD SVG 1.1//EN" "http://www.w3.org/Graphics/SVG/1.1/DTD/svg11.dtd">
<svg width="100%" height="100%" viewBox="0 0 1980 1980" version="1.1" xmlns="http://www.w3.org/2000/svg" xmlns:xlink="http://www.w3.org/1999/xlink" xml:space="preserve" style="fill-rule:evenodd;clip-rule:evenodd;stroke-linejoin:round;stroke-miterlimit:2;">
    <g transform="matrix(-0.835854,0,0,0.835854,1856.21,162.505)">
        <g transform="matrix(0.910779,0,0,0.910779,62.6185,152.316)">
            <path d="M1700.54,1839.49L1388.5,1839.49C1205.31,1550.06 1254.61,1621.97 1163.43,1480.22C1126.62,1423 979.437,1278.62 936.356,1266.07C893.276,1253.52 836.184,1247.25 765.081,1247.25L484.013,1247.25L484.013,1839.49L319.403,1839.49C275.875,1839.49 240.588,1804.2 240.588,1760.67L240.588,78.815C240.588,35.287 275.875,0 319.403,0L1054.93,0C1166.19,0 1259.46,7.11 1334.75,21.331C1410.03,35.552 1476.12,65.457 1533,111.047C1589.88,156.637 1633.59,214.147 1664.12,283.577C1694.65,353.008 1709.92,479.768 1709.92,618.629C1709.92,757.49 1666,973.289 1578.17,1057.78C1490.34,1142.26 1406.27,1195.8 1238.13,1218.39L1238.13,1223.41C1361.1,1277.78 1700.54,1839.49 1700.54,1839.49ZM484.013,1028.92L1006,1028.92C1111.4,1028.92 1194.84,1019.92 1256.32,1001.94C1317.81,983.954 1366.95,949.03 1403.76,897.166C1440.56,845.303 1458.97,702.28 1458.97,618.629C1458.97,534.978 1428.43,348.407 1367.37,289.851C1306.3,231.295 1205.5,202.017 1064.97,202.017L484.013,202.017L484.013,1028.92Z" style="fill-rule:nonzero;"/>
        </g>
        <g transform="matrix(-0.954948,0,0,1.19638,1751.57,-174.791)">
            <path d="M1150.37,567.677L1150.37,909.817C1150.37,954.071 1105.35,990 1049.91,990C994.468,990 949.456,954.071 949.456,909.817L949.456,567.677C949.456,523.423 994.468,487.495 1049.91,487.495C1105.35,487.495 1150.37,523.423 1150.37,567.677Z"/>
        </g>
    </g>
</svg>
